<svg width="1440" height="555" viewBox="0 0 1440 555" fill="none" xmlns="http://www.w3.org/2000/svg">
<g clip-path="url(#clip0_2112_1400)">
<g opacity="0.4" clip-path="url(#clip1_2112_1400)">
<mask id="mask0_2112_1400" style="mask-type:alpha" maskUnits="userSpaceOnUse" x="-32" y="40" width="1440" height="1440">
<rect width="1440" height="1440" transform="translate(-32 40)" fill="url(#paint0_radial_2112_1400)"/>
</mask>
<g mask="url(#mask0_2112_1400)">
<g clip-path="url(#clip2_2112_1400)">
<mask id="path-3-inside-1_2112_1400" fill="white">
<path d="M-80 40H16V136H-80V40Z"/>
</mask>
<path d="M16 136V137H17V136H16ZM16 40H15V136H16H17V40H16ZM16 136V135H-80V136V137H16V136Z" fill="#D0D5DD" mask="url(#path-3-inside-1_2112_1400)"/>
<mask id="path-5-inside-2_2112_1400" fill="white">
<path d="M16 40H112V136H16V40Z"/>
</mask>
<path d="M112 136V137H113V136H112ZM112 40H111V136H112H113V40H112ZM112 136V135H16V136V137H112V136Z" fill="#D0D5DD" mask="url(#path-5-inside-2_2112_1400)"/>
<mask id="path-7-inside-3_2112_1400" fill="white">
<path d="M112 40H208V136H112V40Z"/>
</mask>
<path d="M208 136V137H209V136H208ZM208 40H207V136H208H209V40H208ZM208 136V135H112V136V137H208V136Z" fill="#D0D5DD" mask="url(#path-7-inside-3_2112_1400)"/>
<mask id="path-9-inside-4_2112_1400" fill="white">
<path d="M208 40H304V136H208V40Z"/>
</mask>
<path d="M304 136V137H305V136H304ZM304 40H303V136H304H305V40H304ZM304 136V135H208V136V137H304V136Z" fill="#D0D5DD" mask="url(#path-9-inside-4_2112_1400)"/>
<mask id="path-11-inside-5_2112_1400" fill="white">
<path d="M304 40H400V136H304V40Z"/>
</mask>
<path d="M400 136V137H401V136H400ZM400 40H399V136H400H401V40H400ZM400 136V135H304V136V137H400V136Z" fill="#D0D5DD" mask="url(#path-11-inside-5_2112_1400)"/>
<mask id="path-13-inside-6_2112_1400" fill="white">
<path d="M400 40H496V136H400V40Z"/>
</mask>
<path d="M496 136V137H497V136H496ZM496 40H495V136H496H497V40H496ZM496 136V135H400V136V137H496V136Z" fill="#D0D5DD" mask="url(#path-13-inside-6_2112_1400)"/>
<mask id="path-15-inside-7_2112_1400" fill="white">
<path d="M496 40H592V136H496V40Z"/>
</mask>
<path d="M592 136V137H593V136H592ZM592 40H591V136H592H593V40H592ZM592 136V135H496V136V137H592V136Z" fill="#D0D5DD" mask="url(#path-15-inside-7_2112_1400)"/>
<mask id="path-17-inside-8_2112_1400" fill="white">
<path d="M592 40H688V136H592V40Z"/>
</mask>
<path d="M688 136V137H689V136H688ZM688 40H687V136H688H689V40H688ZM688 136V135H592V136V137H688V136Z" fill="#D0D5DD" mask="url(#path-17-inside-8_2112_1400)"/>
<mask id="path-19-inside-9_2112_1400" fill="white">
<path d="M688 40H784V136H688V40Z"/>
</mask>
<path d="M784 136V137H785V136H784ZM784 40H783V136H784H785V40H784ZM784 136V135H688V136V137H784V136Z" fill="#D0D5DD" mask="url(#path-19-inside-9_2112_1400)"/>
<mask id="path-21-inside-10_2112_1400" fill="white">
<path d="M784 40H880V136H784V40Z"/>
</mask>
<path d="M880 136V137H881V136H880ZM880 40H879V136H880H881V40H880ZM880 136V135H784V136V137H880V136Z" fill="#D0D5DD" mask="url(#path-21-inside-10_2112_1400)"/>
<mask id="path-23-inside-11_2112_1400" fill="white">
<path d="M880 40H976V136H880V40Z"/>
</mask>
<path d="M976 136V137H977V136H976ZM976 40H975V136H976H977V40H976ZM976 136V135H880V136V137H976V136Z" fill="#D0D5DD" mask="url(#path-23-inside-11_2112_1400)"/>
<mask id="path-25-inside-12_2112_1400" fill="white">
<path d="M976 40H1072V136H976V40Z"/>
</mask>
<path d="M1072 136V137H1073V136H1072ZM1072 40H1071V136H1072H1073V40H1072ZM1072 136V135H976V136V137H1072V136Z" fill="#D0D5DD" mask="url(#path-25-inside-12_2112_1400)"/>
<mask id="path-27-inside-13_2112_1400" fill="white">
<path d="M1072 40H1168V136H1072V40Z"/>
</mask>
<path d="M1168 136V137H1169V136H1168ZM1168 40H1167V136H1168H1169V40H1168ZM1168 136V135H1072V136V137H1168V136Z" fill="#D0D5DD" mask="url(#path-27-inside-13_2112_1400)"/>
<mask id="path-29-inside-14_2112_1400" fill="white">
<path d="M1168 40H1264V136H1168V40Z"/>
</mask>
<path d="M1264 136V137H1265V136H1264ZM1264 40H1263V136H1264H1265V40H1264ZM1264 136V135H1168V136V137H1264V136Z" fill="#D0D5DD" mask="url(#path-29-inside-14_2112_1400)"/>
<mask id="path-31-inside-15_2112_1400" fill="white">
<path d="M1264 40H1360V136H1264V40Z"/>
</mask>
<path d="M1360 136V137H1361V136H1360ZM1360 40H1359V136H1360H1361V40H1360ZM1360 136V135H1264V136V137H1360V136Z" fill="#D0D5DD" mask="url(#path-31-inside-15_2112_1400)"/>
<mask id="path-33-inside-16_2112_1400" fill="white">
<path d="M1360 40H1456V136H1360V40Z"/>
</mask>
<path d="M1456 136V137H1457V136H1456ZM1456 40H1455V136H1456H1457V40H1456ZM1456 136V135H1360V136V137H1456V136Z" fill="#D0D5DD" mask="url(#path-33-inside-16_2112_1400)"/>
<mask id="path-35-inside-17_2112_1400" fill="white">
<path d="M-80 136H16V232H-80V136Z"/>
</mask>
<path d="M16 232V233H17V232H16ZM16 136H15V232H16H17V136H16ZM16 232V231H-80V232V233H16V232Z" fill="#D0D5DD" mask="url(#path-35-inside-17_2112_1400)"/>
<mask id="path-37-inside-18_2112_1400" fill="white">
<path d="M16 136H112V232H16V136Z"/>
</mask>
<path d="M112 232V233H113V232H112ZM112 136H111V232H112H113V136H112ZM112 232V231H16V232V233H112V232Z" fill="#D0D5DD" mask="url(#path-37-inside-18_2112_1400)"/>
<mask id="path-39-inside-19_2112_1400" fill="white">
<path d="M112 136H208V232H112V136Z"/>
</mask>
<path d="M208 232V233H209V232H208ZM208 136H207V232H208H209V136H208ZM208 232V231H112V232V233H208V232Z" fill="#D0D5DD" mask="url(#path-39-inside-19_2112_1400)"/>
<mask id="path-41-inside-20_2112_1400" fill="white">
<path d="M208 136H304V232H208V136Z"/>
</mask>
<path d="M208 136H304V232H208V136Z" fill="#F2F4F7"/>
<path d="M304 232V233H305V232H304ZM304 136H303V232H304H305V136H304ZM304 232V231H208V232V233H304V232Z" fill="#D0D5DD" mask="url(#path-41-inside-20_2112_1400)"/>
<mask id="path-43-inside-21_2112_1400" fill="white">
<path d="M304 136H400V232H304V136Z"/>
</mask>
<path d="M400 232V233H401V232H400ZM400 136H399V232H400H401V136H400ZM400 232V231H304V232V233H400V232Z" fill="#D0D5DD" mask="url(#path-43-inside-21_2112_1400)"/>
<mask id="path-45-inside-22_2112_1400" fill="white">
<path d="M400 136H496V232H400V136Z"/>
</mask>
<path d="M496 232V233H497V232H496ZM496 136H495V232H496H497V136H496ZM496 232V231H400V232V233H496V232Z" fill="#D0D5DD" mask="url(#path-45-inside-22_2112_1400)"/>
<mask id="path-47-inside-23_2112_1400" fill="white">
<path d="M496 136H592V232H496V136Z"/>
</mask>
<path d="M592 232V233H593V232H592ZM592 136H591V232H592H593V136H592ZM592 232V231H496V232V233H592V232Z" fill="#D0D5DD" mask="url(#path-47-inside-23_2112_1400)"/>
<mask id="path-49-inside-24_2112_1400" fill="white">
<path d="M592 136H688V232H592V136Z"/>
</mask>
<path d="M688 232V233H689V232H688ZM688 136H687V232H688H689V136H688ZM688 232V231H592V232V233H688V232Z" fill="#D0D5DD" mask="url(#path-49-inside-24_2112_1400)"/>
<mask id="path-51-inside-25_2112_1400" fill="white">
<path d="M688 136H784V232H688V136Z"/>
</mask>
<path d="M784 232V233H785V232H784ZM784 136H783V232H784H785V136H784ZM784 232V231H688V232V233H784V232Z" fill="#D0D5DD" mask="url(#path-51-inside-25_2112_1400)"/>
<mask id="path-53-inside-26_2112_1400" fill="white">
<path d="M784 136H880V232H784V136Z"/>
</mask>
<path d="M880 232V233H881V232H880ZM880 136H879V232H880H881V136H880ZM880 232V231H784V232V233H880V232Z" fill="#D0D5DD" mask="url(#path-53-inside-26_2112_1400)"/>
<mask id="path-55-inside-27_2112_1400" fill="white">
<path d="M880 136H976V232H880V136Z"/>
</mask>
<path d="M976 232V233H977V232H976ZM976 136H975V232H976H977V136H976ZM976 232V231H880V232V233H976V232Z" fill="#D0D5DD" mask="url(#path-55-inside-27_2112_1400)"/>
<mask id="path-57-inside-28_2112_1400" fill="white">
<path d="M976 136H1072V232H976V136Z"/>
</mask>
<path d="M1072 232V233H1073V232H1072ZM1072 136H1071V232H1072H1073V136H1072ZM1072 232V231H976V232V233H1072V232Z" fill="#D0D5DD" mask="url(#path-57-inside-28_2112_1400)"/>
<mask id="path-59-inside-29_2112_1400" fill="white">
<path d="M1072 136H1168V232H1072V136Z"/>
</mask>
<path d="M1072 136H1168V232H1072V136Z" fill="#F2F4F7"/>
<path d="M1168 232V233H1169V232H1168ZM1168 136H1167V232H1168H1169V136H1168ZM1168 232V231H1072V232V233H1168V232Z" fill="#D0D5DD" mask="url(#path-59-inside-29_2112_1400)"/>
<mask id="path-61-inside-30_2112_1400" fill="white">
<path d="M1168 136H1264V232H1168V136Z"/>
</mask>
<path d="M1264 232V233H1265V232H1264ZM1264 136H1263V232H1264H1265V136H1264ZM1264 232V231H1168V232V233H1264V232Z" fill="#D0D5DD" mask="url(#path-61-inside-30_2112_1400)"/>
<mask id="path-63-inside-31_2112_1400" fill="white">
<path d="M1264 136H1360V232H1264V136Z"/>
</mask>
<path d="M1360 232V233H1361V232H1360ZM1360 136H1359V232H1360H1361V136H1360ZM1360 232V231H1264V232V233H1360V232Z" fill="#D0D5DD" mask="url(#path-63-inside-31_2112_1400)"/>
<mask id="path-65-inside-32_2112_1400" fill="white">
<path d="M1360 136H1456V232H1360V136Z"/>
</mask>
<path d="M1456 232V233H1457V232H1456ZM1456 136H1455V232H1456H1457V136H1456ZM1456 232V231H1360V232V233H1456V232Z" fill="#D0D5DD" mask="url(#path-65-inside-32_2112_1400)"/>
<mask id="path-67-inside-33_2112_1400" fill="white">
<path d="M-80 232H16V328H-80V232Z"/>
</mask>
<path d="M16 328V329H17V328H16ZM16 232H15V328H16H17V232H16ZM16 328V327H-80V328V329H16V328Z" fill="#D0D5DD" mask="url(#path-67-inside-33_2112_1400)"/>
<mask id="path-69-inside-34_2112_1400" fill="white">
<path d="M16 232H112V328H16V232Z"/>
</mask>
<path d="M112 328V329H113V328H112ZM112 232H111V328H112H113V232H112ZM112 328V327H16V328V329H112V328Z" fill="#D0D5DD" mask="url(#path-69-inside-34_2112_1400)"/>
<mask id="path-71-inside-35_2112_1400" fill="white">
<path d="M112 232H208V328H112V232Z"/>
</mask>
<path d="M208 328V329H209V328H208ZM208 232H207V328H208H209V232H208ZM208 328V327H112V328V329H208V328Z" fill="#D0D5DD" mask="url(#path-71-inside-35_2112_1400)"/>
<mask id="path-73-inside-36_2112_1400" fill="white">
<path d="M208 232H304V328H208V232Z"/>
</mask>
<path d="M304 328V329H305V328H304ZM304 232H303V328H304H305V232H304ZM304 328V327H208V328V329H304V328Z" fill="#D0D5DD" mask="url(#path-73-inside-36_2112_1400)"/>
<mask id="path-75-inside-37_2112_1400" fill="white">
<path d="M304 232H400V328H304V232Z"/>
</mask>
<path d="M400 328V329H401V328H400ZM400 232H399V328H400H401V232H400ZM400 328V327H304V328V329H400V328Z" fill="#D0D5DD" mask="url(#path-75-inside-37_2112_1400)"/>
<mask id="path-77-inside-38_2112_1400" fill="white">
<path d="M400 232H496V328H400V232Z"/>
</mask>
<path d="M400 232H496V328H400V232Z" fill="#F2F4F7"/>
<path d="M496 328V329H497V328H496ZM496 232H495V328H496H497V232H496ZM496 328V327H400V328V329H496V328Z" fill="#D0D5DD" mask="url(#path-77-inside-38_2112_1400)"/>
<mask id="path-79-inside-39_2112_1400" fill="white">
<path d="M496 232H592V328H496V232Z"/>
</mask>
<path d="M592 328V329H593V328H592ZM592 232H591V328H592H593V232H592ZM592 328V327H496V328V329H592V328Z" fill="#D0D5DD" mask="url(#path-79-inside-39_2112_1400)"/>
<mask id="path-81-inside-40_2112_1400" fill="white">
<path d="M592 232H688V328H592V232Z"/>
</mask>
<path d="M688 328V329H689V328H688ZM688 232H687V328H688H689V232H688ZM688 328V327H592V328V329H688V328Z" fill="#D0D5DD" mask="url(#path-81-inside-40_2112_1400)"/>
<mask id="path-83-inside-41_2112_1400" fill="white">
<path d="M688 232H784V328H688V232Z"/>
</mask>
<path d="M784 328V329H785V328H784ZM784 232H783V328H784H785V232H784ZM784 328V327H688V328V329H784V328Z" fill="#D0D5DD" mask="url(#path-83-inside-41_2112_1400)"/>
<mask id="path-85-inside-42_2112_1400" fill="white">
<path d="M784 232H880V328H784V232Z"/>
</mask>
<path d="M784 232H880V328H784V232Z" fill="#F2F4F7"/>
<path d="M880 328V329H881V328H880ZM880 232H879V328H880H881V232H880ZM880 328V327H784V328V329H880V328Z" fill="#D0D5DD" mask="url(#path-85-inside-42_2112_1400)"/>
<mask id="path-87-inside-43_2112_1400" fill="white">
<path d="M880 232H976V328H880V232Z"/>
</mask>
<path d="M976 328V329H977V328H976ZM976 232H975V328H976H977V232H976ZM976 328V327H880V328V329H976V328Z" fill="#D0D5DD" mask="url(#path-87-inside-43_2112_1400)"/>
<mask id="path-89-inside-44_2112_1400" fill="white">
<path d="M976 232H1072V328H976V232Z"/>
</mask>
<path d="M1072 328V329H1073V328H1072ZM1072 232H1071V328H1072H1073V232H1072ZM1072 328V327H976V328V329H1072V328Z" fill="#D0D5DD" mask="url(#path-89-inside-44_2112_1400)"/>
<mask id="path-91-inside-45_2112_1400" fill="white">
<path d="M1072 232H1168V328H1072V232Z"/>
</mask>
<path d="M1168 328V329H1169V328H1168ZM1168 232H1167V328H1168H1169V232H1168ZM1168 328V327H1072V328V329H1168V328Z" fill="#D0D5DD" mask="url(#path-91-inside-45_2112_1400)"/>
<mask id="path-93-inside-46_2112_1400" fill="white">
<path d="M1168 232H1264V328H1168V232Z"/>
</mask>
<path d="M1264 328V329H1265V328H1264ZM1264 232H1263V328H1264H1265V232H1264ZM1264 328V327H1168V328V329H1264V328Z" fill="#D0D5DD" mask="url(#path-93-inside-46_2112_1400)"/>
<mask id="path-95-inside-47_2112_1400" fill="white">
<path d="M1264 232H1360V328H1264V232Z"/>
</mask>
<path d="M1360 328V329H1361V328H1360ZM1360 232H1359V328H1360H1361V232H1360ZM1360 328V327H1264V328V329H1360V328Z" fill="#D0D5DD" mask="url(#path-95-inside-47_2112_1400)"/>
<mask id="path-97-inside-48_2112_1400" fill="white">
<path d="M1360 232H1456V328H1360V232Z"/>
</mask>
<path d="M1456 328V329H1457V328H1456ZM1456 232H1455V328H1456H1457V232H1456ZM1456 328V327H1360V328V329H1456V328Z" fill="#D0D5DD" mask="url(#path-97-inside-48_2112_1400)"/>
<mask id="path-99-inside-49_2112_1400" fill="white">
<path d="M-80 328H16V424H-80V328Z"/>
</mask>
<path d="M-80 328H16V424H-80V328Z" fill="#F2F4F7"/>
<path d="M16 424V425H17V424H16ZM16 328H15V424H16H17V328H16ZM16 424V423H-80V424V425H16V424Z" fill="#D0D5DD" mask="url(#path-99-inside-49_2112_1400)"/>
<mask id="path-101-inside-50_2112_1400" fill="white">
<path d="M16 328H112V424H16V328Z"/>
</mask>
<path d="M112 424V425H113V424H112ZM112 328H111V424H112H113V328H112ZM112 424V423H16V424V425H112V424Z" fill="#D0D5DD" mask="url(#path-101-inside-50_2112_1400)"/>
<mask id="path-103-inside-51_2112_1400" fill="white">
<path d="M112 328H208V424H112V328Z"/>
</mask>
<path d="M208 424V425H209V424H208ZM208 328H207V424H208H209V328H208ZM208 424V423H112V424V425H208V424Z" fill="#D0D5DD" mask="url(#path-103-inside-51_2112_1400)"/>
<mask id="path-105-inside-52_2112_1400" fill="white">
<path d="M208 328H304V424H208V328Z"/>
</mask>
<path d="M304 424V425H305V424H304ZM304 328H303V424H304H305V328H304ZM304 424V423H208V424V425H304V424Z" fill="#D0D5DD" mask="url(#path-105-inside-52_2112_1400)"/>
<mask id="path-107-inside-53_2112_1400" fill="white">
<path d="M304 328H400V424H304V328Z"/>
</mask>
<path d="M400 424V425H401V424H400ZM400 328H399V424H400H401V328H400ZM400 424V423H304V424V425H400V424Z" fill="#D0D5DD" mask="url(#path-107-inside-53_2112_1400)"/>
<mask id="path-109-inside-54_2112_1400" fill="white">
<path d="M400 328H496V424H400V328Z"/>
</mask>
<path d="M496 424V425H497V424H496ZM496 328H495V424H496H497V328H496ZM496 424V423H400V424V425H496V424Z" fill="#D0D5DD" mask="url(#path-109-inside-54_2112_1400)"/>
<mask id="path-111-inside-55_2112_1400" fill="white">
<path d="M496 328H592V424H496V328Z"/>
</mask>
<path d="M592 424V425H593V424H592ZM592 328H591V424H592H593V328H592ZM592 424V423H496V424V425H592V424Z" fill="#D0D5DD" mask="url(#path-111-inside-55_2112_1400)"/>
<mask id="path-113-inside-56_2112_1400" fill="white">
<path d="M592 328H688V424H592V328Z"/>
</mask>
<path d="M688 424V425H689V424H688ZM688 328H687V424H688H689V328H688ZM688 424V423H592V424V425H688V424Z" fill="#D0D5DD" mask="url(#path-113-inside-56_2112_1400)"/>
<mask id="path-115-inside-57_2112_1400" fill="white">
<path d="M688 328H784V424H688V328Z"/>
</mask>
<path d="M784 424V425H785V424H784ZM784 328H783V424H784H785V328H784ZM784 424V423H688V424V425H784V424Z" fill="#D0D5DD" mask="url(#path-115-inside-57_2112_1400)"/>
<mask id="path-117-inside-58_2112_1400" fill="white">
<path d="M784 328H880V424H784V328Z"/>
</mask>
<path d="M880 424V425H881V424H880ZM880 328H879V424H880H881V328H880ZM880 424V423H784V424V425H880V424Z" fill="#D0D5DD" mask="url(#path-117-inside-58_2112_1400)"/>
<mask id="path-119-inside-59_2112_1400" fill="white">
<path d="M880 328H976V424H880V328Z"/>
</mask>
<path d="M976 424V425H977V424H976ZM976 328H975V424H976H977V328H976ZM976 424V423H880V424V425H976V424Z" fill="#D0D5DD" mask="url(#path-119-inside-59_2112_1400)"/>
<mask id="path-121-inside-60_2112_1400" fill="white">
<path d="M976 328H1072V424H976V328Z"/>
</mask>
<path d="M1072 424V425H1073V424H1072ZM1072 328H1071V424H1072H1073V328H1072ZM1072 424V423H976V424V425H1072V424Z" fill="#D0D5DD" mask="url(#path-121-inside-60_2112_1400)"/>
<mask id="path-123-inside-61_2112_1400" fill="white">
<path d="M1072 328H1168V424H1072V328Z"/>
</mask>
<path d="M1072 328H1168V424H1072V328Z" fill="#F2F4F7"/>
<path d="M1168 424V425H1169V424H1168ZM1168 328H1167V424H1168H1169V328H1168ZM1168 424V423H1072V424V425H1168V424Z" fill="#D0D5DD" mask="url(#path-123-inside-61_2112_1400)"/>
<mask id="path-125-inside-62_2112_1400" fill="white">
<path d="M1168 328H1264V424H1168V328Z"/>
</mask>
<path d="M1264 424V425H1265V424H1264ZM1264 328H1263V424H1264H1265V328H1264ZM1264 424V423H1168V424V425H1264V424Z" fill="#D0D5DD" mask="url(#path-125-inside-62_2112_1400)"/>
<mask id="path-127-inside-63_2112_1400" fill="white">
<path d="M1264 328H1360V424H1264V328Z"/>
</mask>
<path d="M1360 424V425H1361V424H1360ZM1360 328H1359V424H1360H1361V328H1360ZM1360 424V423H1264V424V425H1360V424Z" fill="#D0D5DD" mask="url(#path-127-inside-63_2112_1400)"/>
<mask id="path-129-inside-64_2112_1400" fill="white">
<path d="M1360 328H1456V424H1360V328Z"/>
</mask>
<path d="M1456 424V425H1457V424H1456ZM1456 328H1455V424H1456H1457V328H1456ZM1456 424V423H1360V424V425H1456V424Z" fill="#D0D5DD" mask="url(#path-129-inside-64_2112_1400)"/>
<mask id="path-131-inside-65_2112_1400" fill="white">
<path d="M-80 424H16V520H-80V424Z"/>
</mask>
<path d="M16 520V521H17V520H16ZM16 424H15V520H16H17V424H16ZM16 520V519H-80V520V521H16V520Z" fill="#D0D5DD" mask="url(#path-131-inside-65_2112_1400)"/>
<mask id="path-133-inside-66_2112_1400" fill="white">
<path d="M16 424H112V520H16V424Z"/>
</mask>
<path d="M112 520V521H113V520H112ZM112 424H111V520H112H113V424H112ZM112 520V519H16V520V521H112V520Z" fill="#D0D5DD" mask="url(#path-133-inside-66_2112_1400)"/>
<mask id="path-135-inside-67_2112_1400" fill="white">
<path d="M112 424H208V520H112V424Z"/>
</mask>
<path d="M208 520V521H209V520H208ZM208 424H207V520H208H209V424H208ZM208 520V519H112V520V521H208V520Z" fill="#D0D5DD" mask="url(#path-135-inside-67_2112_1400)"/>
<mask id="path-137-inside-68_2112_1400" fill="white">
<path d="M208 424H304V520H208V424Z"/>
</mask>
<path d="M304 520V521H305V520H304ZM304 424H303V520H304H305V424H304ZM304 520V519H208V520V521H304V520Z" fill="#D0D5DD" mask="url(#path-137-inside-68_2112_1400)"/>
<mask id="path-139-inside-69_2112_1400" fill="white">
<path d="M304 424H400V520H304V424Z"/>
</mask>
<path d="M400 520V521H401V520H400ZM400 424H399V520H400H401V424H400ZM400 520V519H304V520V521H400V520Z" fill="#D0D5DD" mask="url(#path-139-inside-69_2112_1400)"/>
<mask id="path-141-inside-70_2112_1400" fill="white">
<path d="M400 424H496V520H400V424Z"/>
</mask>
<path d="M496 520V521H497V520H496ZM496 424H495V520H496H497V424H496ZM496 520V519H400V520V521H496V520Z" fill="#D0D5DD" mask="url(#path-141-inside-70_2112_1400)"/>
<mask id="path-143-inside-71_2112_1400" fill="white">
<path d="M496 424H592V520H496V424Z"/>
</mask>
<path d="M496 424H592V520H496V424Z" fill="#F2F4F7"/>
<path d="M592 520V521H593V520H592ZM592 424H591V520H592H593V424H592ZM592 520V519H496V520V521H592V520Z" fill="#D0D5DD" mask="url(#path-143-inside-71_2112_1400)"/>
<mask id="path-145-inside-72_2112_1400" fill="white">
<path d="M592 424H688V520H592V424Z"/>
</mask>
<path d="M688 520V521H689V520H688ZM688 424H687V520H688H689V424H688ZM688 520V519H592V520V521H688V520Z" fill="#D0D5DD" mask="url(#path-145-inside-72_2112_1400)"/>
<mask id="path-147-inside-73_2112_1400" fill="white">
<path d="M688 424H784V520H688V424Z"/>
</mask>
<path d="M784 520V521H785V520H784ZM784 424H783V520H784H785V424H784ZM784 520V519H688V520V521H784V520Z" fill="#D0D5DD" mask="url(#path-147-inside-73_2112_1400)"/>
<mask id="path-149-inside-74_2112_1400" fill="white">
<path d="M784 424H880V520H784V424Z"/>
</mask>
<path d="M880 520V521H881V520H880ZM880 424H879V520H880H881V424H880ZM880 520V519H784V520V521H880V520Z" fill="#D0D5DD" mask="url(#path-149-inside-74_2112_1400)"/>
<mask id="path-151-inside-75_2112_1400" fill="white">
<path d="M880 424H976V520H880V424Z"/>
</mask>
<path d="M976 520V521H977V520H976ZM976 424H975V520H976H977V424H976ZM976 520V519H880V520V521H976V520Z" fill="#D0D5DD" mask="url(#path-151-inside-75_2112_1400)"/>
<mask id="path-153-inside-76_2112_1400" fill="white">
<path d="M976 424H1072V520H976V424Z"/>
</mask>
<path d="M1072 520V521H1073V520H1072ZM1072 424H1071V520H1072H1073V424H1072ZM1072 520V519H976V520V521H1072V520Z" fill="#D0D5DD" mask="url(#path-153-inside-76_2112_1400)"/>
<mask id="path-155-inside-77_2112_1400" fill="white">
<path d="M1072 424H1168V520H1072V424Z"/>
</mask>
<path d="M1168 520V521H1169V520H1168ZM1168 424H1167V520H1168H1169V424H1168ZM1168 520V519H1072V520V521H1168V520Z" fill="#D0D5DD" mask="url(#path-155-inside-77_2112_1400)"/>
<mask id="path-157-inside-78_2112_1400" fill="white">
<path d="M1168 424H1264V520H1168V424Z"/>
</mask>
<path d="M1264 520V521H1265V520H1264ZM1264 424H1263V520H1264H1265V424H1264ZM1264 520V519H1168V520V521H1264V520Z" fill="#D0D5DD" mask="url(#path-157-inside-78_2112_1400)"/>
<mask id="path-159-inside-79_2112_1400" fill="white">
<path d="M1264 424H1360V520H1264V424Z"/>
</mask>
<path d="M1360 520V521H1361V520H1360ZM1360 424H1359V520H1360H1361V424H1360ZM1360 520V519H1264V520V521H1360V520Z" fill="#D0D5DD" mask="url(#path-159-inside-79_2112_1400)"/>
<mask id="path-161-inside-80_2112_1400" fill="white">
<path d="M1360 424H1456V520H1360V424Z"/>
</mask>
<path d="M1456 520V521H1457V520H1456ZM1456 424H1455V520H1456H1457V424H1456ZM1456 520V519H1360V520V521H1456V520Z" fill="#D0D5DD" mask="url(#path-161-inside-80_2112_1400)"/>
<mask id="path-163-inside-81_2112_1400" fill="white">
<path d="M-80 520H16V616H-80V520Z"/>
</mask>
<path d="M16 616V617H17V616H16ZM16 520H15V616H16H17V520H16ZM16 616V615H-80V616V617H16V616Z" fill="#D0D5DD" mask="url(#path-163-inside-81_2112_1400)"/>
<mask id="path-165-inside-82_2112_1400" fill="white">
<path d="M16 520H112V616H16V520Z"/>
</mask>
<path d="M112 616V617H113V616H112ZM112 520H111V616H112H113V520H112ZM112 616V615H16V616V617H112V616Z" fill="#D0D5DD" mask="url(#path-165-inside-82_2112_1400)"/>
<mask id="path-167-inside-83_2112_1400" fill="white">
<path d="M112 520H208V616H112V520Z"/>
</mask>
<path d="M208 616V617H209V616H208ZM208 520H207V616H208H209V520H208ZM208 616V615H112V616V617H208V616Z" fill="#D0D5DD" mask="url(#path-167-inside-83_2112_1400)"/>
<mask id="path-169-inside-84_2112_1400" fill="white">
<path d="M208 520H304V616H208V520Z"/>
</mask>
<path d="M208 520H304V616H208V520Z" fill="#F2F4F7"/>
<path d="M304 616V617H305V616H304ZM304 520H303V616H304H305V520H304ZM304 616V615H208V616V617H304V616Z" fill="#D0D5DD" mask="url(#path-169-inside-84_2112_1400)"/>
<mask id="path-171-inside-85_2112_1400" fill="white">
<path d="M304 520H400V616H304V520Z"/>
</mask>
<path d="M400 616V617H401V616H400ZM400 520H399V616H400H401V520H400ZM400 616V615H304V616V617H400V616Z" fill="#D0D5DD" mask="url(#path-171-inside-85_2112_1400)"/>
<mask id="path-173-inside-86_2112_1400" fill="white">
<path d="M400 520H496V616H400V520Z"/>
</mask>
<path d="M496 616V617H497V616H496ZM496 520H495V616H496H497V520H496ZM496 616V615H400V616V617H496V616Z" fill="#D0D5DD" mask="url(#path-173-inside-86_2112_1400)"/>
<mask id="path-175-inside-87_2112_1400" fill="white">
<path d="M496 520H592V616H496V520Z"/>
</mask>
<path d="M592 616V617H593V616H592ZM592 520H591V616H592H593V520H592ZM592 616V615H496V616V617H592V616Z" fill="#D0D5DD" mask="url(#path-175-inside-87_2112_1400)"/>
<mask id="path-177-inside-88_2112_1400" fill="white">
<path d="M592 520H688V616H592V520Z"/>
</mask>
<path d="M688 616V617H689V616H688ZM688 520H687V616H688H689V520H688ZM688 616V615H592V616V617H688V616Z" fill="#D0D5DD" mask="url(#path-177-inside-88_2112_1400)"/>
<mask id="path-179-inside-89_2112_1400" fill="white">
<path d="M688 520H784V616H688V520Z"/>
</mask>
<path d="M784 616V617H785V616H784ZM784 520H783V616H784H785V520H784ZM784 616V615H688V616V617H784V616Z" fill="#D0D5DD" mask="url(#path-179-inside-89_2112_1400)"/>
<mask id="path-181-inside-90_2112_1400" fill="white">
<path d="M784 520H880V616H784V520Z"/>
</mask>
<path d="M784 520H880V616H784V520Z" fill="#F2F4F7"/>
<path d="M880 616V617H881V616H880ZM880 520H879V616H880H881V520H880ZM880 616V615H784V616V617H880V616Z" fill="#D0D5DD" mask="url(#path-181-inside-90_2112_1400)"/>
<mask id="path-183-inside-91_2112_1400" fill="white">
<path d="M880 520H976V616H880V520Z"/>
</mask>
<path d="M976 616V617H977V616H976ZM976 520H975V616H976H977V520H976ZM976 616V615H880V616V617H976V616Z" fill="#D0D5DD" mask="url(#path-183-inside-91_2112_1400)"/>
<mask id="path-185-inside-92_2112_1400" fill="white">
<path d="M976 520H1072V616H976V520Z"/>
</mask>
<path d="M1072 616V617H1073V616H1072ZM1072 520H1071V616H1072H1073V520H1072ZM1072 616V615H976V616V617H1072V616Z" fill="#D0D5DD" mask="url(#path-185-inside-92_2112_1400)"/>
<mask id="path-187-inside-93_2112_1400" fill="white">
<path d="M1072 520H1168V616H1072V520Z"/>
</mask>
<path d="M1168 616V617H1169V616H1168ZM1168 520H1167V616H1168H1169V520H1168ZM1168 616V615H1072V616V617H1168V616Z" fill="#D0D5DD" mask="url(#path-187-inside-93_2112_1400)"/>
<mask id="path-189-inside-94_2112_1400" fill="white">
<path d="M1168 520H1264V616H1168V520Z"/>
</mask>
<path d="M1264 616V617H1265V616H1264ZM1264 520H1263V616H1264H1265V520H1264ZM1264 616V615H1168V616V617H1264V616Z" fill="#D0D5DD" mask="url(#path-189-inside-94_2112_1400)"/>
<mask id="path-191-inside-95_2112_1400" fill="white">
<path d="M1264 520H1360V616H1264V520Z"/>
</mask>
<path d="M1360 616V617H1361V616H1360ZM1360 520H1359V616H1360H1361V520H1360ZM1360 616V615H1264V616V617H1360V616Z" fill="#D0D5DD" mask="url(#path-191-inside-95_2112_1400)"/>
<mask id="path-193-inside-96_2112_1400" fill="white">
<path d="M1360 520H1456V616H1360V520Z"/>
</mask>
<path d="M1456 616V617H1457V616H1456ZM1456 520H1455V616H1456H1457V520H1456ZM1456 616V615H1360V616V617H1456V616Z" fill="#D0D5DD" mask="url(#path-193-inside-96_2112_1400)"/>
</g>
<rect x="-271.5" y="40.5" width="1919" height="1439" stroke="#D0D5DD"/>
</g>
</g>
</g>
<defs>
<radialGradient id="paint0_radial_2112_1400" cx="0" cy="0" r="1" gradientUnits="userSpaceOnUse" gradientTransform="translate(720 -0.000171661) rotate(90) scale(1440 751.588)">
<stop/>
<stop offset="0.953125" stop-opacity="0"/>
</radialGradient>
<clipPath id="clip0_2112_1400">
<rect width="1440" height="555" fill="white"/>
</clipPath>
<clipPath id="clip1_2112_1400">
<rect width="1440" height="1012" fill="white" transform="translate(-32 40)"/>
</clipPath>
<clipPath id="clip2_2112_1400">
<rect x="-272" y="40" width="1920" height="1440" fill="white"/>
</clipPath>
</defs>
</svg>
